<svg width="308" height="308" viewBox="0 0 308 308" fill="none" xmlns="http://www.w3.org/2000/svg">
    <rect x="2" y="2" width="304" height="304" rx="17" fill="#252525" stroke="#252525" stroke-width="4" />
    <rect x="104" y="204" width="100" height="100" rx="4" fill="#333333" />
    <rect x="204" y="104" width="100" height="100" rx="4" fill="#333333" />
    <rect x="4" y="104" width="100" height="100" rx="4" fill="#333333" />
    <rect x="104" y="4" width="100" height="100" rx="4" fill="#333333" />
    <g filter="url(#filter0_f_17_117)">
        <path fill-rule="evenodd" clip-rule="evenodd" d="M26.2656 268.844C30.3465 272.567 31.7344 275.094 33.6875 277.828C49.3593 276.171 58.3729 276.331 74.7031 277.828C76.6563 275.094 78.0441 272.567 82.125 268.844C88.0627 263.426 91.5 259.078 91.8906 253.219C92.6067 236.215 78.0975 229.514 61.112 235.852C60.874 235.941 60.6101 235.787 60.5786 235.535L59.9143 230.22C59.8851 229.987 60.0669 229.781 60.3019 229.781H65.7188C65.9345 229.781 66.1094 229.606 66.1094 229.391V220.016C66.1094 219.8 65.9345 219.625 65.7188 219.625H59.4688C59.253 219.625 59.0781 219.45 59.0781 219.234L59.0781 212.984C59.0781 212.769 58.9032 212.594 58.6875 212.594H49.7031C49.4874 212.594 49.3125 212.769 49.3125 212.984V219.234C49.3125 219.45 49.1376 219.625 48.9219 219.625H42.6719C42.4561 219.625 42.2813 219.8 42.2813 220.016V229.391C42.2813 229.606 42.4561 229.781 42.6719 229.781H48.0888C48.3237 229.781 48.5055 229.987 48.4764 230.22L47.812 235.535C47.7805 235.787 47.5166 235.941 47.2786 235.852C30.2931 229.514 15.7839 236.215 16.5 253.219C16.8906 259.078 20.3279 263.426 26.2656 268.844ZM43.6005 264.938C45.0704 264.938 46.3004 263.829 46.4131 262.364C46.683 258.852 47.0037 252.779 46.1875 250.875C45.0156 248.141 40.7188 246.969 37.5938 247.359C34.4688 247.75 31.7344 250.484 33.2969 254.781C33.8039 256.175 38.6931 260.991 41.4055 263.954C41.9709 264.572 42.7632 264.938 43.6005 264.938V264.938ZM61.9776 262.364C61.7077 258.852 61.387 252.779 62.2031 250.875C63.375 248.141 67.6719 246.969 70.7969 247.359C73.9219 247.75 76.6563 250.484 75.0938 254.781C74.5868 256.175 69.6976 260.991 66.9851 263.954C66.4198 264.572 65.6275 264.938 64.7901 264.938C63.3202 264.938 62.0902 263.829 61.9776 262.364Z" fill="#565656" />
        <path d="M25.8868 285.203C25.8789 285.234 25.875 285.266 25.875 285.298V292.672C25.875 292.888 26.0499 293.062 26.2656 293.062H82.125C82.3407 293.062 82.5156 292.888 82.5156 292.672V285.298C82.5156 285.266 82.5117 285.234 82.5038 285.203C81.7148 282.102 79.7559 279.771 74.7031 277.828C58.3729 276.331 49.3593 276.171 33.6875 277.828C28.6348 279.771 26.6759 282.102 25.8868 285.203Z" fill="#565656" />
    </g>
    <g filter="url(#filter1_f_17_117)">
        <path d="M233.726 79.3665C241.767 74.3791 246.043 68.6365 246.555 60.6605C246.569 60.438 246.391 60.25 246.168 60.25H240.886C240.779 60.25 240.677 60.2065 240.604 60.1277C239.298 58.7038 238.798 57.1635 238.767 54.9978C238.765 54.8631 238.836 54.7371 238.95 54.6657C241.781 52.8948 242.995 52.0938 245.719 50.3868C245.947 50.2438 245.963 49.914 245.759 49.7385C236.587 41.8518 242.072 27.8281 254 27.8281C265.919 27.8281 271.026 42.2091 262.244 49.7385C262.039 49.9143 262.054 50.245 262.283 50.3884C265.006 52.0943 266.22 52.8953 269.05 54.6657C269.164 54.7371 269.235 54.8631 269.233 54.9978C269.202 57.1635 268.702 58.7038 267.396 60.1277C267.323 60.2065 267.221 60.25 267.114 60.25H261.832C261.609 60.25 261.431 60.438 261.445 60.6605C261.957 68.6365 266.233 74.3791 274.274 79.3665C274.299 79.3824 274.323 79.4014 274.345 79.4227C276.674 81.7593 278.611 84.483 279 87.5937V93.0625C279 93.2782 278.825 93.4531 278.609 93.4531H229.391C229.175 93.4531 229 93.2782 229 93.0625V87.5937C229.389 84.483 231.326 81.7593 233.655 79.4227C233.677 79.4014 233.701 79.3824 233.726 79.3665Z" fill="#565656" />
    </g>
    <g filter="url(#filter2_f_17_117)">
        <path d="M251.656 113.766C256.297 112.992 260.172 116.813 259.87 121.059C259.864 121.142 259.828 121.223 259.773 121.285C250.875 131.312 250.109 139.75 249.713 155.158C249.708 155.377 249.884 155.562 250.104 155.562H256.734C256.95 155.562 257.125 155.39 257.126 155.175C257.154 148.252 257.971 137.81 262.736 130.171C262.864 129.966 263.149 129.933 263.326 130.098C272.824 138.979 275.929 147.943 276.266 154C276.656 161.031 274.703 169.625 267.281 177.437C276.656 177.437 280.562 180.562 281.344 186.813V193.063C281.344 193.278 281.169 193.453 280.953 193.453H225.484C225.269 193.453 225.094 193.278 225.094 193.063V186.813C225.875 180.562 229.781 177.437 239.156 177.437C231.734 169.625 229.781 161.031 230.172 154C230.56 147.02 234.412 136.96 247.079 125.732C247.234 125.594 247.256 125.354 247.134 125.187C243.204 119.819 247.054 114.533 251.656 113.766Z" fill="#565656" />
    </g>
    <path d="M104 87.8804C115.813 93.2253 118.417 97.7237 123 105.77C140.302 137.607 149.964 220.793 156.001 304H172.857C159.199 219.204 155.835 157.224 131.5 110.5C125.918 99.7834 115.5 90.5 104 87.8804Z" fill="#9E8832" />
    <path fill-rule="evenodd" clip-rule="evenodd" d="M59.3148 105.209C59.4458 105.132 59.597 105.086 59.7489 105.075C71.5709 104.236 77.616 104.127 91.9466 88.2194C92.1369 88.0082 92.4136 87.8804 92.698 87.8804H104C115.5 90.5 125.918 99.7834 131.5 110.5C155.835 157.224 159.199 219.204 172.857 304H289C297.284 304 304 297.284 304 289V274.5C277.5 264.5 250.786 270.5 236 275C224.5 278.5 213.253 275.527 210.5 264C195.126 199.529 183.5 142.562 166 101C158 82 151.3 69.9733 140.787 56.9002C128.08 41.099 111.554 30.4742 89.2257 29.3817C88.9584 29.3686 88.7 29.2457 88.5204 29.0472C77.3715 16.7229 73.1438 12.7547 70.7144 13.0116C67.7301 13.7536 63.9112 18.0744 62.9919 29.8118C62.9715 30.0721 62.8455 30.3254 62.6506 30.4989C47.5497 43.9442 46.4283 47.6811 40.6876 66.8114L40.5629 67.2269C32.401 79.451 27.6854 86.2154 19.2012 97.9646C19.0881 98.1212 19.02 98.3165 19.0131 98.5095C18.4193 115.123 38.1118 117.897 46.9484 117.997C47.2711 118.001 47.5669 117.843 47.7545 117.58C51.8338 111.87 54.5176 108.055 59.3148 105.209ZM73.2987 50.0157C69.6151 50.0157 67.2425 53.4199 65.5114 57.9536C65.0784 59.0875 65.997 60.2544 67.2081 60.1589C72.3443 59.7539 76.7155 59.1244 77.6061 56.9002C78.6399 54.3185 77.6061 50.0157 73.2987 50.0157Z" fill="#C5AF3B" />
    <path d="M65.5114 57.9536C67.2425 53.4199 69.6151 50.0157 73.2987 50.0157C77.6061 50.0157 78.6399 54.3185 77.6061 56.9002C76.7155 59.1244 72.3443 59.7539 67.2081 60.1589C65.997 60.2544 65.0784 59.0875 65.5114 57.9536Z" fill="#252525" />
    <defs>
        <filter id="filter0_f_17_117" x="15.9746" y="212.094" width="76.4415" height="81.4688" filterUnits="userSpaceOnUse" color-interpolation-filters="sRGB">
            <feFlood flood-opacity="0" result="BackgroundImageFix" />
            <feBlend mode="normal" in="SourceGraphic" in2="BackgroundImageFix" result="shape" />
            <feGaussianBlur stdDeviation="0.25" result="effect1_foregroundBlur_17_117" />
        </filter>
        <filter id="filter1_f_17_117" x="228.5" y="27.3281" width="51" height="66.625" filterUnits="userSpaceOnUse" color-interpolation-filters="sRGB">
            <feFlood flood-opacity="0" result="BackgroundImageFix" />
            <feBlend mode="normal" in="SourceGraphic" in2="BackgroundImageFix" result="shape" />
            <feGaussianBlur stdDeviation="0.25" result="effect1_foregroundBlur_17_117" />
        </filter>
        <filter id="filter2_f_17_117" x="224.594" y="113.165" width="57.25" height="80.7878" filterUnits="userSpaceOnUse" color-interpolation-filters="sRGB">
            <feFlood flood-opacity="0" result="BackgroundImageFix" />
            <feBlend mode="normal" in="SourceGraphic" in2="BackgroundImageFix" result="shape" />
            <feGaussianBlur stdDeviation="0.25" result="effect1_foregroundBlur_17_117" />
        </filter>
    </defs>
</svg>